<?xml version="1.0" encoding="UTF-8" standalone="no"?>
<svg
   xmlns:dc="http://purl.org/dc/elements/1.1/"
   xmlns:cc="http://creativecommons.org/ns#"
   xmlns:rdf="http://www.w3.org/1999/02/22-rdf-syntax-ns#"
   xmlns:svg="http://www.w3.org/2000/svg"
   xmlns="http://www.w3.org/2000/svg"
   viewBox="0 0 1122.52 793.70667"
   height="793.70667"
   width="1122.52"
   xml:space="preserve"
   id="svg2"
   version="1.1"><metadata
     id="metadata8"><rdf:RDF><cc:Work
         rdf:about=""><dc:format>image/svg+xml</dc:format><dc:type
           rdf:resource="http://purl.org/dc/dcmitype/StillImage" /></cc:Work></rdf:RDF></metadata><defs
     id="defs6"><clipPath
       id="clipPath18"
       clipPathUnits="userSpaceOnUse"><path
         id="path16"
         d="M 0,595.28 H 841.89 V 0 H 0 Z" /></clipPath></defs><g
     transform="matrix(1.3333333,0,0,-1.3333333,0,793.70667)"
     id="g10"><g
       id="g12"><g
         clip-path="url(#clipPath18)"
         id="g14"><g
           transform="translate(532,197.28)"
           id="g20"><path
             id="path22"
             style="fill:#003466;fill-opacity:1;fill-rule:nonzero;stroke:none"
             d="m 0,0 h -64 l -0.001,40.433 c -0.03,25.933 -21.06,46.927 -47,46.927 C -136.94,87.36 -158,66.326 -158,40.393 V 0 h -64 v 170.06 l 32,31.96 32,-31.96 V 115 h 94 v 55.06 l 32,31.96 32,-31.96 z M -32,228.34 -83,177.58 V 133 h -56 v 44.58 l -51,50.76 -51,-50.76 V -19 h 102 v 59.35 c 0,15.57 12.429,28.19 28,28.19 15.571,0 28,-12.62 28,-28.19 V -19 H 19 v 196.58 z m 7.48,28.2 18.8,3.29 -26.32,5.17 H -34 v -19 h 1.96 l 24.44,6.21 z m -7.52,-11.28 c -4.153,0 -7.52,-3.367 -7.52,-7.52 0,-4.153 3.367,-7.52 7.52,-7.52 4.153,0 7.52,3.367 7.52,7.52 0,4.153 -3.367,7.52 -7.52,7.52 M -11,148 h -17 v 17 h 17 z m -25,0 h -17 v 17 h 17 z m -146.44,108.54 18.8,3.29 -26.32,5.17 H -192 v -19 h 2.04 l 24.44,6.21 z m -7.52,-11.28 c -4.153,0 -7.52,-3.367 -7.52,-7.52 0,-4.153 3.367,-7.52 7.52,-7.52 4.153,0 7.52,3.367 7.52,7.52 0,4.153 -3.367,7.52 -7.52,7.52 M -211,148 h 17 v 17 h -17 z m 25,0 h 17 v 17 h -17 z" /></g><g
           transform="translate(295.7165,146.9982)"
           id="g24"><path
             id="path26"
             style="fill:#003466;fill-opacity:1;fill-rule:nonzero;stroke:none"
             d="m 0,0 c 0,-0.193 0.128,-0.324 0.321,-0.324 h 4.901 c 0.193,0 0.321,0.131 0.321,0.324 v 8.057 c 0,0.355 0.29,0.645 0.645,0.645 H 9.41 c 0.355,0 0.644,-0.29 0.644,-0.645 v -21.27 c 0,-0.355 -0.289,-0.645 -0.644,-0.645 H 6.188 c -0.355,0 -0.645,0.29 -0.645,0.645 v 8.057 c 0,0.193 -0.128,0.321 -0.321,0.321 H 0.321 C 0.128,-4.835 0,-4.963 0,-5.156 v -8.057 c 0,-0.355 -0.452,-0.645 -0.807,-0.645 h -3.06 c -0.355,0 -0.645,0.29 -0.645,0.645 v 21.27 c 0,0.355 0.29,0.645 0.645,0.645 h 3.222 C -0.29,8.702 0,8.412 0,8.057 Z" /></g><g
           transform="translate(348.1727,148.8675)"
           id="g28"><path
             id="path30"
             style="fill:#003466;fill-opacity:1;fill-rule:nonzero;stroke:none"
             d="m 0,0 c 0.097,-0.324 0.485,-0.324 0.582,0 l 1.804,6.284 c 0.097,0.387 0.321,0.548 0.676,0.548 h 4.449 c 0.353,0 0.643,-0.289 0.643,-0.644 v -21.271 c 0,-0.355 -0.29,-0.645 -0.643,-0.645 H 4.352 c -0.355,0 -0.645,0.29 -0.645,0.645 v 12.762 c 0,0.162 -0.193,0.193 -0.258,0.032 L 1.934,-7.122 C 1.806,-7.509 1.613,-7.671 1.258,-7.671 h -1.901 c -0.355,0 -0.548,0.162 -0.678,0.549 l -1.546,4.833 c -0.065,0.161 -0.258,0.13 -0.258,-0.032 v -12.762 c 0,-0.355 -0.29,-0.645 -0.645,-0.645 h -3.157 c -0.355,0 -0.645,0.29 -0.645,0.645 V 6.188 c 0,0.355 0.29,0.644 0.645,0.644 h 4.447 c 0.355,0 0.579,-0.161 0.676,-0.548 z" /></g><g
           transform="translate(371.1963,146.9982)"
           id="g32"><path
             id="path34"
             style="fill:#003466;fill-opacity:1;fill-rule:nonzero;stroke:none"
             d="m 0,0 c 0,-0.193 0.128,-0.324 0.321,-0.324 h 7.251 c 0.355,0 0.644,-0.289 0.644,-0.642 V -4.19 c 0,-0.355 -0.289,-0.645 -0.644,-0.645 H 0.321 C 0.128,-4.835 0,-4.963 0,-5.156 v -3.867 c 0,-0.193 0.128,-0.324 0.321,-0.324 h 7.637 c 0.355,0 0.645,-0.289 0.645,-0.644 v -3.222 c 0,-0.355 -0.29,-0.645 -0.645,-0.645 H -3.869 c -0.355,0 -0.645,0.29 -0.645,0.645 v 21.27 c 0,0.355 0.29,0.645 0.645,0.645 H 7.83 c 0.355,0 0.645,-0.29 0.645,-0.645 V 4.833 C 8.475,4.48 8.185,4.188 7.83,4.188 H 0.321 C 0.128,4.188 0,4.06 0,3.867 Z" /></g><g
           transform="translate(394.541,146.9982)"
           id="g36"><path
             id="path38"
             style="fill:#003466;fill-opacity:1;fill-rule:nonzero;stroke:none"
             d="m 0,0 c 0,-0.193 0.128,-0.324 0.321,-0.324 h 7.251 c 0.355,0 0.644,-0.289 0.644,-0.642 V -4.19 c 0,-0.355 -0.289,-0.645 -0.644,-0.645 H 0.321 C 0.128,-4.835 0,-4.963 0,-5.156 v -3.867 c 0,-0.193 0.128,-0.324 0.321,-0.324 h 7.637 c 0.355,0 0.645,-0.289 0.645,-0.644 v -3.222 c 0,-0.355 -0.29,-0.645 -0.645,-0.645 H -3.869 c -0.353,0 -0.645,0.29 -0.645,0.645 v 21.27 c 0,0.355 0.292,0.645 0.645,0.645 H 7.83 c 0.355,0 0.645,-0.29 0.645,-0.645 V 4.833 C 8.475,4.48 8.185,4.188 7.83,4.188 H 0.321 C 0.128,4.188 0,4.06 0,3.867 Z" /></g><g
           transform="translate(427.8777,133.7848)"
           id="g40"><path
             id="path42"
             style="fill:#003466;fill-opacity:1;fill-rule:nonzero;stroke:none"
             d="m 0,0 c 0,-0.355 -0.29,-0.645 -0.645,-0.645 h -3.804 c -0.546,0 -0.773,0.29 -0.869,0.548 l -4.384,11.311 c -0.063,0.195 -0.289,0.13 -0.289,-0.063 V 0 c 0,-0.355 -0.29,-0.645 -0.645,-0.645 h -3.222 c -0.355,0 -0.645,0.29 -0.645,0.645 v 21.27 c 0,0.355 0.29,0.645 0.645,0.645 h 3.835 c 0.483,0 0.71,-0.29 0.807,-0.582 L -4.801,9.088 c 0.063,-0.193 0.289,-0.13 0.289,0.063 V 21.27 c 0,0.355 0.29,0.645 0.645,0.645 h 3.222 C -0.29,21.915 0,21.625 0,21.27 Z" /></g><g
           transform="translate(442.7455,137.9751)"
           id="g44"><path
             id="path46"
             style="fill:#003466;fill-opacity:1;fill-rule:nonzero;stroke:none"
             d="m 0,0 c 0,-0.193 0.128,-0.324 0.321,-0.324 h 8.057 c 0.355,0 0.645,-0.289 0.645,-0.644 V -4.19 c 0,-0.355 -0.29,-0.645 -0.645,-0.645 H -3.867 c -0.355,0 -0.645,0.29 -0.645,0.645 v 21.27 c 0,0.355 0.29,0.645 0.645,0.645 h 3.222 C -0.29,17.725 0,17.435 0,17.08 Z" /></g><g
           transform="translate(466.3143,151.0267)"
           id="g48"><path
             id="path50"
             style="fill:#003466;fill-opacity:1;fill-rule:nonzero;stroke:none"
             d="m 0,0 c 0,0.193 -0.128,0.321 -0.321,0.321 h -3.222 c -0.355,0 -0.645,0.29 -0.645,0.645 v 3.062 c 0,0.355 0.29,0.645 0.645,0.645 h 11.6 c 0.355,0 0.645,-0.29 0.645,-0.645 V 0.966 C 8.702,0.611 8.412,0.321 8.057,0.321 H 4.835 C 4.642,0.321 4.514,0.193 4.514,0 v -13.213 c 0,-0.194 0.128,-0.324 0.321,-0.324 h 3.546 c 0.355,0 0.644,-0.29 0.644,-0.642 v -3.063 c 0,-0.355 -0.289,-0.645 -0.644,-0.645 H -3.867 c -0.355,0 -0.645,0.29 -0.645,0.645 v 3.063 c 0,0.352 0.29,0.642 0.645,0.642 h 3.546 c 0.193,0 0.321,0.13 0.321,0.324 z" /></g><g
           transform="translate(499.8746,133.7848)"
           id="g52"><path
             id="path54"
             style="fill:#003466;fill-opacity:1;fill-rule:nonzero;stroke:none"
             d="m 0,0 c 0,-0.355 -0.29,-0.645 -0.645,-0.645 h -3.804 c -0.546,0 -0.773,0.29 -0.869,0.548 l -4.384,11.311 c -0.063,0.195 -0.289,0.13 -0.289,-0.063 V 0 c 0,-0.355 -0.29,-0.645 -0.645,-0.645 h -3.222 c -0.355,0 -0.645,0.29 -0.645,0.645 v 21.27 c 0,0.355 0.29,0.645 0.645,0.645 h 3.835 c 0.483,0 0.71,-0.29 0.807,-0.582 L -4.801,9.088 c 0.063,-0.193 0.289,-0.13 0.289,0.063 V 21.27 c 0,0.355 0.29,0.645 0.645,0.645 h 3.222 C -0.29,21.915 0,21.625 0,21.27 Z" /></g><g
           transform="translate(524.7338,133.7848)"
           id="g56"><path
             id="path58"
             style="fill:#003466;fill-opacity:1;fill-rule:nonzero;stroke:none"
             d="m 0,0 c 0,-0.355 -0.29,-0.645 -0.645,-0.645 h -3.804 c -0.546,0 -0.773,0.29 -0.869,0.548 l -4.384,11.311 c -0.063,0.195 -0.289,0.13 -0.289,-0.063 V 0 c 0,-0.355 -0.29,-0.645 -0.645,-0.645 h -3.222 c -0.355,0 -0.645,0.29 -0.645,0.645 v 21.27 c 0,0.355 0.29,0.645 0.645,0.645 h 3.835 c 0.483,0 0.71,-0.29 0.807,-0.582 L -4.801,9.088 c 0.063,-0.193 0.289,-0.13 0.289,0.063 V 21.27 c 0,0.355 0.29,0.645 0.645,0.645 h 3.222 C -0.29,21.915 0,21.625 0,21.27 Z" /></g><g
           transform="translate(540.3938,142.2934)"
           id="g60"><path
             id="path62"
             style="fill:#003466;fill-opacity:1;fill-rule:nonzero;stroke:none"
             d="m 0,0 c -0.065,-0.258 0.063,-0.355 0.256,-0.355 h 2.966 c 0.193,0 0.321,0.097 0.258,0.355 L 1.932,7.733 C 1.901,7.83 1.869,7.864 1.773,7.864 H 1.708 C 1.611,7.864 1.577,7.83 1.546,7.733 Z m -2.128,-8.67 c -0.065,-0.29 -0.321,-0.483 -0.613,-0.483 h -3.384 c -0.514,0 -0.707,0.355 -0.645,0.644 L -1,12.921 c 0.065,0.292 0.321,0.486 0.614,0.486 h 4.318 c 0.29,0 0.546,-0.194 0.611,-0.486 l 5.736,-21.43 C 10.344,-8.798 10.151,-9.153 9.634,-9.153 H 6.251 c -0.29,0 -0.515,0.193 -0.612,0.483 L 4.64,-5.35 c -0.066,0.257 -0.194,0.483 -0.483,0.483 h -4.898 c -0.29,0 -0.421,-0.193 -0.483,-0.483 z" /></g><g
           transform="translate(324.6527,141.9384)"
           id="g64"><path
             id="path66"
             style="fill:#003466;fill-opacity:1;fill-rule:nonzero;stroke:none"
             d="m 0,0 h -2.966 c -0.193,0 -0.321,0.097 -0.256,0.355 l 1.546,7.733 c 0.031,0.097 0.065,0.131 0.162,0.131 h 0.065 c 0.096,0 0.128,-0.034 0.159,-0.131 L 0.258,0.355 C 0.321,0.097 0.193,0 0,0 m 2.313,9.571 h 2.202 c 0.355,0 0.645,0.29 0.645,0.645 v 2.901 c 0,0.355 -0.29,0.645 -0.645,0.645 H -7.449 c -0.355,0 -0.645,-0.29 -0.645,-0.645 v -2.901 c 0,-0.355 0.29,-0.645 0.645,-0.645 h 2.23 L -9.991,-8.154 c -0.063,-0.289 0.13,-0.644 0.644,-0.644 h 3.384 c 0.292,0 0.548,0.193 0.613,0.483 l 0.904,3.32 c 0.063,0.29 0.193,0.483 0.483,0.483 h 4.898 c 0.289,0 0.418,-0.226 0.483,-0.483 l 1,-3.32 c 0.096,-0.29 0.321,-0.483 0.611,-0.483 h 3.383 c 0.517,0 0.71,0.355 0.645,0.644 z" /></g></g></g></g></svg>